<svg xmlns="http://www.w3.org/2000/svg" viewBox="0 0 400 300" fill="none">
  <rect width="400" height="300" fill="#F8F9FA"/>
  
  <!-- Lab flask -->
  <path d="M150 60 L150 100 L120 180 C120 200 180 200 180 180 L150 100" stroke="#20C997" stroke-width="2" fill="#E6FCF5"/>
  <line x1="130" y1="80" x2="170" y2="80" stroke="#20C997" stroke-width="2"/>
  
  <!-- Molecule structure -->
  <circle cx="250" cy="120" r="15" fill="#339AF0"/>
  <circle cx="210" cy="160" r="15" fill="#FF6B6B"/>
  <circle cx="290" cy="160" r="15" fill="#FF6B6B"/>
  <circle cx="250" cy="200" r="15" fill="#FF6B6B"/>
  <line x1="250" y1="135" x2="250" y2="185" stroke="#212529" stroke-width="2"/>
  <line x1="237" y1="128" x2="223" y2="147" stroke="#212529" stroke-width="2"/>
  <line x1="263" y1="128" x2="277" y2="147" stroke="#212529" stroke-width="2"/>
  
  <!-- Periodic table elements -->
  <rect x="40" y="80" width="40" height="40" fill="#7950F2" stroke="#212529"/>
  <text x="48" y="95" font-family="monospace" font-size="10" fill="white">H</text>
  <text x="47" y="110" font-family="monospace" font-size="8" fill="white">1.008</text>
  
  <rect x="40" y="130" width="40" height="40" fill="#4C6EF5" stroke="#212529"/>
  <text x="48" y="145" font-family="monospace" font-size="10" fill="white">O</text>
  <text x="45" y="160" font-family="monospace" font-size="8" fill="white">15.999</text>
  
  <rect x="40" y="180" width="40" height="40" fill="#FA5252" stroke="#212529"/>
  <text x="48" y="195" font-family="monospace" font-size="10" fill="white">C</text>
  <text x="47" y="210" font-family="monospace" font-size="8" fill="white">12.011</text>
  
  <!-- Bubbles -->
  <circle cx="120" cy="140" r="5" fill="#20C997"/>
  <circle cx="130" cy="160" r="8" fill="#20C997"/>
  <circle cx="140" cy="120" r="4" fill="#20C997"/>
  <circle cx="160" cy="150" r="6" fill="#20C997"/>
  <circle cx="170" cy="130" r="3" fill="#20C997"/>
</svg> 