<svg xmlns="http://www.w3.org/2000/svg" viewBox="0 0 400 250" fill="none">
  <rect width="400" height="250" fill="#F8F9FA"/>
  
  <!-- Background elements -->
  <rect x="20" y="20" width="360" height="210" rx="5" fill="white" stroke="#CED4DA" stroke-width="1"/>
  
  <!-- Water molecule H2O -->
  <!-- Oxygen atom -->
  <circle cx="200" cy="120" r="25" fill="#FF5A5F" opacity="0.9"/>
  <text x="193" y="125" font-family="sans-serif" font-size="18" fill="white">O</text>
  
  <!-- Hydrogen atoms -->
  <circle cx="160" cy="90" r="18" fill="#339AF0" opacity="0.9"/>
  <text x="155" y="95" font-family="sans-serif" font-size="14" fill="white">H</text>
  
  <circle cx="240" cy="90" r="18" fill="#339AF0" opacity="0.9"/>
  <text x="235" y="95" font-family="sans-serif" font-size="14" fill="white">H</text>
  
  <!-- Bonds -->
  <line x1="175" y1="102" x2="191" y2="111" stroke="#555555" stroke-width="2"/>
  <line x1="209" y1="111" x2="225" y2="102" stroke="#555555" stroke-width="2"/>
  
  <!-- Methane CH4 molecule -->
  <!-- Carbon atom -->
  <circle cx="100" cy="180" r="22" fill="#333333" opacity="0.9"/>
  <text x="94" y="185" font-family="sans-serif" font-size="16" fill="white">C</text>
  
  <!-- Hydrogen atoms -->
  <circle cx="70" cy="160" r="16" fill="#339AF0" opacity="0.9"/>
  <text x="65" y="165" font-family="sans-serif" font-size="12" fill="white">H</text>
  
  <circle cx="130" cy="160" r="16" fill="#339AF0" opacity="0.9"/>
  <text x="125" y="165" font-family="sans-serif" font-size="12" fill="white">H</text>
  
  <circle cx="70" cy="200" r="16" fill="#339AF0" opacity="0.9"/>
  <text x="65" y="205" font-family="sans-serif" font-size="12" fill="white">H</text>
  
  <circle cx="130" cy="200" r="16" fill="#339AF0" opacity="0.9"/>
  <text x="125" y="205" font-family="sans-serif" font-size="12" fill="white">H</text>
  
  <!-- Bonds -->
  <line x1="86" y1="170" x2="97" y2="175" stroke="#555555" stroke-width="2"/>
  <line x1="114" y1="175" x2="125" y2="170" stroke="#555555" stroke-width="2"/>
  <line x1="86" y1="190" x2="97" y2="185" stroke="#555555" stroke-width="2"/>
  <line x1="114" y1="185" x2="125" y2="190" stroke="#555555" stroke-width="2"/>
  
  <!-- CO2 molecule -->
  <!-- Carbon atom -->
  <circle cx="300" cy="180" r="22" fill="#333333" opacity="0.9"/>
  <text x="294" y="185" font-family="sans-serif" font-size="16" fill="white">C</text>
  
  <!-- Oxygen atoms -->
  <circle cx="260" cy="180" r="20" fill="#FF5A5F" opacity="0.9"/>
  <text x="253" y="185" font-family="sans-serif" font-size="14" fill="white">O</text>
  
  <circle cx="340" cy="180" r="20" fill="#FF5A5F" opacity="0.9"/>
  <text x="333" y="185" font-family="sans-serif" font-size="14" fill="white">O</text>
  
  <!-- Double bonds -->
  <line x1="280" y1="176" x2="322" y2="176" stroke="#555555" stroke-width="2"/>
  <line x1="280" y1="184" x2="322" y2="184" stroke="#555555" stroke-width="2"/>
  
  <!-- Beaker outline -->
  <path d="M160 40 L180 40 L195 130 L145 130 Z" stroke="#6C757D" stroke-width="2" fill="none"/>
  <line x1="145" y1="130" x2="195" y2="130" stroke="#6C757D" stroke-width="2"/>
  <path d="M160 40 L180 40" stroke="#6C757D" stroke-width="2"/>
  
  <!-- Bubbles in beaker -->
  <circle cx="155" cy="110" r="5" fill="#74C0FC" opacity="0.7"/>
  <circle cx="165" cy="90" r="3" fill="#74C0FC" opacity="0.7"/>
  <circle cx="175" cy="100" r="4" fill="#74C0FC" opacity="0.7"/>
  <circle cx="185" cy="75" r="3" fill="#74C0FC" opacity="0.7"/>
  
  <!-- Periodic table element -->
  <rect x="280" y="40" width="40" height="40" fill="#FD7E14" stroke="#6C757D" stroke-width="1"/>
  <text x="284" y="57" font-family="sans-serif" font-size="10" fill="white">11</text>
  <text x="295" y="70" font-family="sans-serif" font-size="20" font-weight="bold" fill="white">Na</text>
</svg> 