<svg xmlns="http://www.w3.org/2000/svg" viewBox="0 0 400 250" fill="none">
  <rect width="400" height="250" fill="#F9F4E8"/>
  
  <!-- Background rice paper texture -->
  <rect x="20" y="20" width="360" height="210" rx="5" fill="#F5F0E5" stroke="#E6DFD4" stroke-width="1"/>
  
  <!-- Vertical brush strokes representing characters -->
  <path d="M100 60 Q 102 80 105 100 Q 108 120 105 140 Q 102 160 100 180" 
        stroke="#333333" stroke-width="6" stroke-linecap="round" stroke-linejoin="round" 
        fill="none" opacity="0.9"/>
  
  <path d="M100 80 L 140 80" 
        stroke="#333333" stroke-width="5" stroke-linecap="round" stroke-linejoin="round" 
        fill="none" opacity="0.9"/>
        
  <path d="M110 120 L 130 120" 
        stroke="#333333" stroke-width="4" stroke-linecap="round" stroke-linejoin="round" 
        fill="none" opacity="0.9"/>
  
  <!-- Second character -->
  <path d="M180 60 L 180 180" 
        stroke="#333333" stroke-width="6" stroke-linecap="round" stroke-linejoin="round" 
        fill="none" opacity="0.9"/>
        
  <path d="M160 120 L 200 120" 
        stroke="#333333" stroke-width="5" stroke-linecap="round" stroke-linejoin="round" 
        fill="none" opacity="0.9"/>
        
  <path d="M160 80 L 200 80" 
        stroke="#333333" stroke-width="5" stroke-linecap="round" stroke-linejoin="round" 
        fill="none" opacity="0.8"/>
        
  <path d="M160 160 L 200 160" 
        stroke="#333333" stroke-width="5" stroke-linecap="round" stroke-linejoin="round" 
        fill="none" opacity="0.8"/>
  
  <!-- Third character -->
  <path d="M260 60 L 260 180" 
        stroke="#333333" stroke-width="6" stroke-linecap="round" stroke-linejoin="round" 
        fill="none" opacity="0.9"/>
        
  <path d="M240 60 L 280 60" 
        stroke="#333333" stroke-width="5" stroke-linecap="round" stroke-linejoin="round" 
        fill="none" opacity="0.9"/>
        
  <path d="M240 120 Q 260 100 280 120 Q 260 140 240 120" 
        stroke="#333333" stroke-width="4" stroke-linecap="round" stroke-linejoin="round" 
        fill="none" opacity="0.8"/>
  
  <!-- Ink splash effects -->
  <circle cx="110" cy="160" r="2" fill="#333333" opacity="0.7"/>
  <circle cx="115" cy="162" r="1" fill="#333333" opacity="0.5"/>
  <circle cx="105" cy="165" r="1.5" fill="#333333" opacity="0.6"/>
  
  <circle cx="190" cy="75" r="1.5" fill="#333333" opacity="0.6"/>
  <circle cx="195" cy="78" r="1" fill="#333333" opacity="0.5"/>
  <circle cx="185" cy="77" r="1" fill="#333333" opacity="0.5"/>
  
  <circle cx="270" cy="125" r="2" fill="#333333" opacity="0.7"/>
  <circle cx="265" cy="128" r="1" fill="#333333" opacity="0.5"/>
  <circle cx="272" cy="123" r="1.5" fill="#333333" opacity="0.6"/>
  
  <!-- Chinese seal/stamp (red) -->
  <rect x="320" y="150" width="30" height="30" rx="2" fill="#D14836" opacity="0.9"/>
  <path d="M325 160 L 345 160 M 335 155 L 335 175 M 330 165 L 340 165" 
        stroke="white" stroke-width="1" opacity="0.9"/>
  
  <!-- Decorative elements -->
  <path d="M50 40 L 350 40" stroke="#8B4513" stroke-width="1" stroke-dasharray="2 2" opacity="0.5"/>
  <path d="M50 210 L 350 210" stroke="#8B4513" stroke-width="1" stroke-dasharray="2 2" opacity="0.5"/>
  
  <!-- Small bamboo decoration -->
  <path d="M40 70 L 40 110" stroke="#548235" stroke-width="2" opacity="0.8"/>
  <path d="M35 75 L 45 75" stroke="#548235" stroke-width="1" opacity="0.8"/>
  <path d="M35 85 L 45 85" stroke="#548235" stroke-width="1" opacity="0.8"/>
  <path d="M35 95 L 45 95" stroke="#548235" stroke-width="1" opacity="0.8"/>
  <path d="M35 105 L 45 105" stroke="#548235" stroke-width="1" opacity="0.8"/>
  
  <path d="M40 75 Q 50 80 45 90" stroke="#548235" stroke-width="1" opacity="0.8" fill="none"/>
  <path d="M40 85 Q 50 90 45 100" stroke="#548235" stroke-width="1" opacity="0.8" fill="none"/>
  <path d="M40 95 Q 50 100 45 110" stroke="#548235" stroke-width="1" opacity="0.8" fill="none"/>
  
  <!-- Small leaf shapes -->
  <path d="M45 75 Q 50 70 55 75 Q 50 80 45 75" fill="#548235" opacity="0.8"/>
  <path d="M45 85 Q 50 80 55 85 Q 50 90 45 85" fill="#548235" opacity="0.8"/>
  <path d="M45 95 Q 50 90 55 95 Q 50 100 45 95" fill="#548235" opacity="0.8"/>
</svg> 