<svg xmlns="http://www.w3.org/2000/svg" viewBox="0 0 400 300" fill="none">
  <rect width="400" height="300" fill="#F8F9FA"/>
  
  <!-- Globe -->
  <circle cx="180" cy="150" r="80" fill="#CED4DA" stroke="#ADB5BD" stroke-width="2"/>
  <ellipse cx="180" cy="150" rx="80" ry="30" stroke="#495057" stroke-width="1" fill="none"/>
  <path d="M100 150 H260" stroke="#495057" stroke-width="1"/>
  <path d="M180 70 V230" stroke="#495057" stroke-width="1"/>
  
  <!-- Continents -->
  <path d="M160 90 Q170 85 180 95 Q190 105 200 100 L205 110 Q195 115 185 110 L175 115 Q165 120 160 110 Z" fill="#40C057"/>
  <path d="M130 120 Q140 125 145 130 Q150 140 155 145 Q160 150 160 160 Q155 170 145 165 Q135 160 130 150 Z" fill="#40C057"/>
  <path d="M190 150 Q200 145 210 150 Q220 155 225 165 Q230 175 220 180 Q210 185 200 180 Q190 175 190 165 Z" fill="#40C057"/>
  <path d="M155 180 Q165 175 175 180 Q185 185 180 195 Q175 205 165 200 Z" fill="#40C057"/>
  
  <!-- Map elements -->
  <rect x="300" y="80" width="60" height="40" rx="5" fill="#FA5252"/>
  <rect x="300" y="130" width="60" height="40" rx="5" fill="#FD7E14"/>
  <rect x="300" y="180" width="60" height="40" rx="5" fill="#20C997"/>
  
  <!-- Compass -->
  <circle cx="65" cy="170" r="30" fill="white" stroke="#495057"/>
  <path d="M65 140 L65 155 M65 185 L65 200 M35 170 L50 170 M80 170 L95 170" stroke="#495057"/>
  <path d="M65 160 L75 170 L65 180 L55 170 Z" fill="#FA5252"/>
  <text x="63" y="165" font-family="monospace" font-size="10" fill="#212529">N</text>
  
  <!-- Topographic lines -->
  <path d="M30 80 Q40 70 50 80 Q60 90 70 80 Q80 70 90 80" stroke="#ADB5BD" stroke-width="1" fill="none"/>
  <path d="M30 90 Q40 80 50 90 Q60 100 70 90 Q80 80 90 90" stroke="#ADB5BD" stroke-width="1" fill="none"/>
  <path d="M30 100 Q40 90 50 100 Q60 110 70 100 Q80 90 90 100" stroke="#ADB5BD" stroke-width="1" fill="none"/>
</svg> 