<svg xmlns="http://www.w3.org/2000/svg" viewBox="0 0 400 250" fill="none">
  <rect width="400" height="250" fill="#F8F9FA"/>
  
  <!-- Map background -->
  <rect x="20" y="20" width="360" height="210" rx="5" fill="#E7F5FE" stroke="#CED4DA" stroke-width="1"/>
  
  <!-- Continents/landmasses -->
  <path d="M80 60 Q100 50 120 60 T160 70 Q190 75 210 65 Q230 55 250 65 Q270 75 290 70 Q310 65 330 75 L330 100 Q310 110 290 105 Q270 100 250 110 Q230 120 210 110 Q190 100 170 105 Q150 110 130 105 Q110 100 90 110 L80 60Z" fill="#A5D6A7" stroke="#81C784" stroke-width="1"/>
  
  <!-- Island -->
  <path d="M250 150 Q260 145 270 150 Q280 155 270 160 Q260 165 250 160 Q240 155 250 150Z" fill="#A5D6A7" stroke="#81C784" stroke-width="1"/>
  
  <!-- Lake -->
  <path d="M160 80 Q165 78 170 80 Q175 82 170 84 Q165 86 160 84 Q155 82 160 80Z" fill="#BBDEFB" stroke="#90CAF9" stroke-width="1"/>
  
  <!-- Ocean -->
  <text x="120" y="140" font-family="sans-serif" font-size="10" fill="#1976D2" font-style="italic">Pacific Ocean</text>
  <text x="290" y="120" font-family="sans-serif" font-size="10" fill="#1976D2" font-style="italic">Atlantic Ocean</text>
  
  <!-- River -->
  <path d="M210 70 Q215 90 200 110 Q190 130 200 150 Q210 170 200 190" fill="none" stroke="#64B5F6" stroke-width="2"/>
  
  <!-- Mountain ranges -->
  <path d="M140 75 L145 65 L150 75" fill="none" stroke="#6D4C41" stroke-width="1"/>
  <path d="M150 75 L155 65 L160 75" fill="none" stroke="#6D4C41" stroke-width="1"/>
  <path d="M160 75 L165 65 L170 75" fill="none" stroke="#6D4C41" stroke-width="1"/>
  
  <!-- Desert -->
  <circle cx="110" cy="90" r="1" fill="#D7CCC8"/>
  <circle cx="115" cy="88" r="1" fill="#D7CCC8"/>
  <circle cx="120" cy="92" r="1" fill="#D7CCC8"/>
  <circle cx="112" cy="94" r="1" fill="#D7CCC8"/>
  <circle cx="118" cy="87" r="1" fill="#D7CCC8"/>
  
  <!-- Forest -->
  <circle cx="280" cy="80" r="3" fill="#2E7D32"/>
  <circle cx="285" cy="78" r="3" fill="#2E7D32"/>
  <circle cx="290" cy="82" r="3" fill="#2E7D32"/>
  <circle cx="282" cy="84" r="3" fill="#2E7D32"/>
  <circle cx="288" cy="77" r="3" fill="#2E7D32"/>
  
  <!-- Cities -->
  <circle cx="230" cy="90" r="3" fill="#E53935" stroke="#B71C1C" stroke-width="1"/>
  <text x="235" y="93" font-family="sans-serif" font-size="8" fill="#B71C1C">Capital City</text>
  
  <circle cx="190" cy="100" r="2" fill="#F5F5F5" stroke="#616161" stroke-width="1"/>
  <text x="195" y="103" font-family="sans-serif" font-size="7" fill="#616161">City</text>
  
  <circle cx="160" cy="110" r="2" fill="#F5F5F5" stroke="#616161" stroke-width="1"/>
  <text x="165" y="113" font-family="sans-serif" font-size="7" fill="#616161">City</text>
  
  <!-- Country borders -->
  <path d="M170 105 Q190 95 210 105 Q230 115 250 105" fill="none" stroke="#757575" stroke-width="1" stroke-dasharray="2 2"/>
  
  <!-- Compass -->
  <circle cx="50" cy="50" r="15" fill="white" stroke="#9E9E9E" stroke-width="1"/>
  <path d="M50 40 L50 60 M40 50 L60 50" stroke="#9E9E9E" stroke-width="1"/>
  <text x="48" y="48" font-family="sans-serif" font-size="10" fill="#212121">N</text>
  <text x="48" y="63" font-family="sans-serif" font-size="10" fill="#212121">S</text>
  <text x="63" y="53" font-family="sans-serif" font-size="10" fill="#212121">E</text>
  <text x="35" y="53" font-family="sans-serif" font-size="10" fill="#212121">W</text>
  
  <!-- Scale -->
  <line x1="50" y1="200" x2="150" y2="200" stroke="#424242" stroke-width="1"/>
  <line x1="50" y1="197" x2="50" y2="203" stroke="#424242" stroke-width="1"/>
  <line x1="100" y1="197" x2="100" y2="203" stroke="#424242" stroke-width="1"/>
  <line x1="150" y1="197" x2="150" y2="203" stroke="#424242" stroke-width="1"/>
  <text x="45" y="215" font-family="sans-serif" font-size="8" fill="#424242">0</text>
  <text x="90" y="215" font-family="sans-serif" font-size="8" fill="#424242">500 km</text>
  <text x="140" y="215" font-family="sans-serif" font-size="8" fill="#424242">1000 km</text>
  
  <!-- Legend -->
  <rect x="280" y="170" width="80" height="50" fill="white" stroke="#BDBDBD" stroke-width="1"/>
  <text x="285" y="185" font-family="sans-serif" font-size="8" fill="#212121">Legend</text>
  <rect x="285" y="190" width="10" height="5" fill="#A5D6A7"/>
  <text x="300" y="195" font-family="sans-serif" font-size="7" fill="#212121">Land</text>
  <rect x="285" y="200" width="10" height="5" fill="#BBDEFB"/>
  <text x="300" y="205" font-family="sans-serif" font-size="7" fill="#212121">Water</text>
</svg> 