<?xml version="1.0" encoding="UTF-8"?>
<svg width="400" height="300" viewBox="0 0 400 300" fill="none" xmlns="http://www.w3.org/2000/svg">
  <!-- Background -->
  <rect width="400" height="300" fill="#fff8e1" fill-opacity="0.2"/>
  
  <!-- Historical Backdrop - Ancient Columns -->
  <g opacity="0.9">
    <!-- Left Column -->
    <rect x="60" y="40" width="30" height="220" rx="2" fill="#d6c6a5" stroke="#b15f01" stroke-width="1"/>
    <rect x="60" y="40" width="30" height="20" rx="1" fill="#e5d6b5" stroke="#b15f01" stroke-width="1"/>
    <rect x="60" y="240" width="30" height="20" rx="1" fill="#e5d6b5" stroke="#b15f01" stroke-width="1"/>
    <path d="M60 60 L90 60" stroke="#b15f01" stroke-width="1"/>
    <path d="M60 240 L90 240" stroke="#b15f01" stroke-width="1"/>
    
    <!-- Center Column -->
    <rect x="185" y="40" width="30" height="220" rx="2" fill="#d6c6a5" stroke="#b15f01" stroke-width="1"/>
    <rect x="185" y="40" width="30" height="20" rx="1" fill="#e5d6b5" stroke="#b15f01" stroke-width="1"/>
    <rect x="185" y="240" width="30" height="20" rx="1" fill="#e5d6b5" stroke="#b15f01" stroke-width="1"/>
    <path d="M185 60 L215 60" stroke="#b15f01" stroke-width="1"/>
    <path d="M185 240 L215 240" stroke="#b15f01" stroke-width="1"/>
    
    <!-- Right Column -->
    <rect x="310" y="40" width="30" height="220" rx="2" fill="#d6c6a5" stroke="#b15f01" stroke-width="1"/>
    <rect x="310" y="40" width="30" height="20" rx="1" fill="#e5d6b5" stroke="#b15f01" stroke-width="1"/>
    <rect x="310" y="240" width="30" height="20" rx="1" fill="#e5d6b5" stroke="#b15f01" stroke-width="1"/>
    <path d="M310 60 L340 60" stroke="#b15f01" stroke-width="1"/>
    <path d="M310 240 L340 240" stroke="#b15f01" stroke-width="1"/>
    
    <!-- Top Architrave -->
    <rect x="50" y="20" width="300" height="20" rx="2" fill="#e5d6b5" stroke="#b15f01" stroke-width="1"/>
    
    <!-- Bottom Base -->
    <rect x="40" y="260" width="320" height="30" rx="2" fill="#d6c6a5" stroke="#b15f01" stroke-width="1"/>
  </g>
  
  <!-- Historical Timeline -->
  <path d="M50 150 L350 150" stroke="#b15f01" stroke-width="3" stroke-linecap="round" stroke-dasharray="1 4"/>
  
  <!-- Historical Event Markers -->
  <circle cx="80" cy="150" r="8" fill="#ff8f00"/>
  <circle cx="150" cy="150" r="8" fill="#ff8f00"/>
  <circle cx="200" cy="150" r="8" fill="#ff8f00"/>
  <circle cx="250" cy="150" r="8" fill="#ff8f00"/>
  <circle cx="320" cy="150" r="8" fill="#ff8f00"/>
  
  <!-- Historical Items -->
  <!-- Ancient Scroll -->
  <g transform="translate(120, 70) rotate(-5)">
    <rect x="0" y="0" width="60" height="40" rx="5" fill="#f0e6d2" stroke="#b15f01" stroke-width="1"/>
    <path d="M5 5 L55 5 M5 15 L55 15 M5 25 L55 25 M5 35 L30 35" stroke="#b15f01" stroke-width="0.5" stroke-linecap="round"/>
    <circle cx="5" cy="0" r="5" fill="#d6c6a5" stroke="#b15f01" stroke-width="1"/>
    <circle cx="5" cy="40" r="5" fill="#d6c6a5" stroke="#b15f01" stroke-width="1"/>
    <circle cx="55" cy="0" r="5" fill="#d6c6a5" stroke="#b15f01" stroke-width="1"/>
    <circle cx="55" cy="40" r="5" fill="#d6c6a5" stroke="#b15f01" stroke-width="1"/>
  </g>
  
  <!-- Medieval Sword -->
  <g transform="translate(220, 60) rotate(45)">
    <rect x="0" y="0" width="8" height="70" rx="2" fill="#d6c6a5" stroke="#b15f01" stroke-width="1"/>
    <rect x="-6" y="70" width="20" height="10" rx="2" fill="#d6c6a5" stroke="#b15f01" stroke-width="1"/>
    <rect x="-2" y="-15" width="12" height="15" rx="1" fill="#b36a00" stroke="#b15f01" stroke-width="1"/>
  </g>
  
  <!-- Compass/Navigation -->
  <g transform="translate(280, 90)">
    <circle cx="0" cy="0" r="25" fill="#f0e6d2" stroke="#b15f01" stroke-width="1"/>
    <circle cx="0" cy="0" r="20" fill="none" stroke="#b15f01" stroke-width="0.5" stroke-dasharray="1 2"/>
    <path d="M0 -20 L0 20 M-20 0 L20 0" stroke="#b15f01" stroke-width="1"/>
    <path d="M0 0 L-10 10 M0 0 L10 -10" stroke="#ff8f00" stroke-width="2" stroke-linecap="round"/>
    <circle cx="0" cy="0" r="3" fill="#b15f01" stroke="#b15f01" stroke-width="1"/>
  </g>
  
  <!-- Ancient Pyramid -->
  <g transform="translate(100, 180)">
    <path d="M0 50 L40 0 L80 50 Z" fill="#d6c6a5" stroke="#b15f01" stroke-width="1"/>
    <path d="M20 50 L20 30 L60 30 L60 50" fill="#c0b090" stroke="#b15f01" stroke-width="1"/>
    <path d="M20 30 L40 10 L60 30" stroke="#b15f01" stroke-width="0.5" stroke-dasharray="2 1"/>
  </g>
  
  <!-- Industrial Revolution Gear -->
  <g transform="translate(260, 190)">
    <circle cx="0" cy="0" r="30" fill="#d6c6a5" stroke="#b15f01" stroke-width="1.5"/>
    <circle cx="0" cy="0" r="10" fill="#c0b090" stroke="#b15f01" stroke-width="1"/>
    <path d="M0 -30 L0 -10 M0 10 L0 30 M-30 0 L-10 0 M10 0 L30 0" stroke="#b15f01" stroke-width="3"/>
    <path d="M-20 -20 L-7 -7 M-20 20 L-7 7 M20 -20 L7 -7 M20 20 L7 7" stroke="#b15f01" stroke-width="3"/>
  </g>
  
  <!-- Historical Dates -->
  <text x="80" y="135" font-family="serif" font-size="10" fill="#b15f01" text-anchor="middle">3000 BCE</text>
  <text x="150" y="135" font-family="serif" font-size="10" fill="#b15f01" text-anchor="middle">500 CE</text>
  <text x="200" y="135" font-family="serif" font-size="10" fill="#b15f01" text-anchor="middle">1500 CE</text>
  <text x="250" y="135" font-family="serif" font-size="10" fill="#b15f01" text-anchor="middle">1800 CE</text>
  <text x="320" y="135" font-family="serif" font-size="10" fill="#b15f01" text-anchor="middle">Present</text>
  
  <!-- Decorative Elements -->
  <!-- Old Map Elements -->
  <path d="M30 40 C50 35, 70 45, 90 40" stroke="#b15f01" stroke-width="1" stroke-linecap="round" fill="none" opacity="0.6"/>
  <path d="M320 70 C340 65, 350 75, 370 70" stroke="#b15f01" stroke-width="1" stroke-linecap="round" fill="none" opacity="0.6"/>
  <path d="M350 200 C360 190, 370 195, 380 185" stroke="#b15f01" stroke-width="1" stroke-linecap="round" fill="none" opacity="0.6"/>
  <path d="M40 220 C50 210, 60 215, 70 205" stroke="#b15f01" stroke-width="1" stroke-linecap="round" fill="none" opacity="0.6"/>
  
  <!-- Compass Rose -->
  <g transform="translate(40, 80) scale(0.4)">
    <path d="M0 -20 L5 0 L0 20 L-5 0 Z" fill="#f0e6d2" stroke="#b15f01" stroke-width="1" transform="rotate(0)"/>
    <path d="M0 -20 L5 0 L0 20 L-5 0 Z" fill="#f0e6d2" stroke="#b15f01" stroke-width="1" transform="rotate(90)"/>
    <path d="M0 -15 L3 0 L0 15 L-3 0 Z" fill="#f0e6d2" stroke="#b15f01" stroke-width="1" transform="rotate(45)"/>
    <path d="M0 -15 L3 0 L0 15 L-3 0 Z" fill="#f0e6d2" stroke="#b15f01" stroke-width="1" transform="rotate(135)"/>
    <circle cx="0" cy="0" r="3" fill="#b15f01"/>
  </g>
  
  <!-- Ancient Symbol -->
  <g transform="translate(350, 240) scale(0.5)">
    <circle cx="0" cy="0" r="15" fill="none" stroke="#b15f01" stroke-width="1"/>
    <path d="M0 -15 L0 15 M-15 0 L15 0" stroke="#b15f01" stroke-width="1"/>
    <circle cx="0" cy="0" r="5" fill="none" stroke="#b15f01" stroke-width="1"/>
  </g>
</svg> 