<svg xmlns="http://www.w3.org/2000/svg" width="120" height="40" viewBox="0 0 120 40" fill="none">
  <rect x="5" y="5" width="30" height="30" rx="6" fill="#4a6bff"/>
  <path d="M16 15L24 25" stroke="white" stroke-width="3" stroke-linecap="round"/>
  <path d="M24 15L16 25" stroke="white" stroke-width="3" stroke-linecap="round"/>
  <path d="M12 20H28" stroke="white" stroke-width="3" stroke-linecap="round"/>
  <path d="M45 15H50L54 28L58 15H62L66 28L70 15H75L68 30H64L60 18L56 30H52L45 15Z" fill="#4a6bff"/>
  <path d="M77 15H88C89.0609 15 90.0783 15.4214 90.8284 16.1716C91.5786 16.9217 92 17.9391 92 19V26C92 27.0609 91.5786 28.0783 90.8284 28.8284C90.0783 29.5786 89.0609 30 88 30H77V15ZM88 26V19H82V26H88Z" fill="#4a6bff"/>
</svg> 