<svg xmlns="http://www.w3.org/2000/svg" viewBox="0 0 400 300" fill="none">
  <rect width="400" height="300" fill="#F8F9FA"/>
  
  <!-- Atom structure -->
  <circle cx="180" cy="150" r="6" fill="#4A56E2"/>
  <ellipse cx="180" cy="150" rx="60" ry="25" stroke="#4A56E2" stroke-width="2" transform="rotate(30 180 150)"/>
  <ellipse cx="180" cy="150" rx="60" ry="25" stroke="#4A56E2" stroke-width="2" transform="rotate(90 180 150)"/>
  <ellipse cx="180" cy="150" rx="60" ry="25" stroke="#4A56E2" stroke-width="2" transform="rotate(150 180 150)"/>
  
  <!-- Pendulum -->
  <line x1="260" y1="80" x2="310" y2="150" stroke="#FF6B6B" stroke-width="2"/>
  <circle cx="310" cy="150" r="15" fill="#FF6B6B"/>
  
  <!-- Wave -->
  <path d="M20 200 Q 50 150 80 200 Q 110 250 140 200 Q 170 150 200 200" stroke="#FF922B" stroke-width="3" fill="none"/>
  
  <!-- Light refraction -->
  <line x1="280" y1="200" x2="320" y2="240" stroke="#FAB005" stroke-width="3"/>
  <line x1="320" y1="240" x2="370" y2="220" stroke="#FAB005" stroke-width="3"/>
  <path d="M320 220 L 320 260" stroke="#FAB005" stroke-width="1" stroke-dasharray="2 2"/>
  
  <!-- Formula -->
  <text x="50" y="100" font-family="monospace" font-size="14" fill="#212529">E = mc²</text>
  <text x="50" y="125" font-family="monospace" font-size="14" fill="#212529">F = ma</text>
  <text x="50" y="150" font-family="monospace" font-size="14" fill="#212529">V = IR</text>
</svg> 