<?xml version="1.0" encoding="UTF-8"?>
<svg width="400" height="300" viewBox="0 0 400 300" fill="none" xmlns="http://www.w3.org/2000/svg">
  <!-- Background -->
  <rect width="400" height="300" fill="#e0f7fa" fill-opacity="0.3"/>
  
  <!-- Science Laboratory Setting -->
  <rect x="50" y="50" width="300" height="200" rx="10" fill="#ffffff" stroke="#00acc1" stroke-width="2"/>
  
  <!-- Laboratory Equipment -->
  <!-- Large Flask -->
  <path d="M180 80H220V120L240 180V200H160V180L180 120V80Z" fill="#ffffff" stroke="#00acc1" stroke-width="2"/>
  <path d="M180 120L160 180V200H240V180L220 120H180Z" fill="#e0f7fa" fill-opacity="0.6"/>
  
  <!-- Small Bubbles in Flask -->
  <circle cx="175" cy="160" r="5" fill="#ffffff" stroke="#00acc1" stroke-width="1"/>
  <circle cx="195" cy="175" r="8" fill="#ffffff" stroke="#00acc1" stroke-width="1"/>
  <circle cx="220" cy="165" r="6" fill="#ffffff" stroke="#00acc1" stroke-width="1"/>
  
  <!-- Test Tubes Rack -->
  <rect x="100" y="160" width="50" height="10" rx="2" fill="#e0f7fa" stroke="#00acc1" stroke-width="1.5"/>
  <rect x="100" y="170" width="50" height="30" rx="2" fill="#e0f7fa" stroke="#00acc1" stroke-width="1.5"/>
  
  <!-- Test Tubes -->
  <rect x="110" y="130" width="8" height="70" rx="4" fill="#ffffff" stroke="#00acc1" stroke-width="1"/>
  <rect x="125" y="140" width="8" height="60" rx="4" fill="#ffffff" stroke="#00acc1" stroke-width="1"/>
  <rect x="140" y="135" width="8" height="65" rx="4" fill="#ffffff" stroke="#00acc1" stroke-width="1"/>
  
  <!-- Test Tube Contents -->
  <rect x="110" y="160" width="8" height="40" rx="4" fill="#ff9800" fill-opacity="0.5"/>
  <rect x="125" y="170" width="8" height="30" rx="4" fill="#4caf50" fill-opacity="0.5"/>
  <rect x="140" y="150" width="8" height="50" rx="4" fill="#9c27b0" fill-opacity="0.5"/>
  
  <!-- Microscope -->
  <path d="M280 180H310V200H280V180Z" fill="#e0f7fa" stroke="#00acc1" stroke-width="1.5"/>
  <path d="M290 160L300 160L300 180L290 180L290 160Z" fill="#e0f7fa" stroke="#00acc1" stroke-width="1.5"/>
  <circle cx="295" cy="150" r="10" fill="#ffffff" stroke="#00acc1" stroke-width="1.5"/>
  <circle cx="295" cy="150" r="5" fill="#e0f7fa" stroke="#00acc1" stroke-width="1"/>
  <path d="M285 140L305 140" stroke="#00acc1" stroke-width="1.5"/>
  <path d="M295 140L295 130" stroke="#00acc1" stroke-width="1.5"/>
  <path d="M290 130L300 130" stroke="#00acc1" stroke-width="1.5"/>
  
  <!-- Molecular Model -->
  <!-- Atoms -->
  <circle cx="80" cy="100" r="8" fill="#ff5722" stroke="#00acc1" stroke-width="1"/>
  <circle cx="100" cy="90" r="8" fill="#2196f3" stroke="#00acc1" stroke-width="1"/>
  <circle cx="120" cy="100" r="8" fill="#ff5722" stroke="#00acc1" stroke-width="1"/>
  <circle cx="90" cy="115" r="8" fill="#2196f3" stroke="#00acc1" stroke-width="1"/>
  <circle cx="110" cy="115" r="8" fill="#2196f3" stroke="#00acc1" stroke-width="1"/>
  
  <!-- Bonds -->
  <line x1="82" y1="104" x2="88" y2="111" stroke="#00acc1" stroke-width="1.5"/>
  <line x1="98" y1="98" x2="82" y2="100" stroke="#00acc1" stroke-width="1.5"/>
  <line x1="118" y1="100" x2="102" y2="98" stroke="#00acc1" stroke-width="1.5"/>
  <line x1="118" y1="104" x2="112" y2="111" stroke="#00acc1" stroke-width="1.5"/>
  <line x1="92" y1="115" x2="108" y2="115" stroke="#00acc1" stroke-width="1.5"/>
  
  <!-- Periodic Table Fragment -->
  <rect x="260" y="80" width="20" height="20" fill="#e0f7fa" stroke="#00acc1" stroke-width="1"/>
  <rect x="280" y="80" width="20" height="20" fill="#e0f7fa" stroke="#00acc1" stroke-width="1"/>
  <rect x="300" y="80" width="20" height="20" fill="#e0f7fa" stroke="#00acc1" stroke-width="1"/>
  <rect x="260" y="100" width="20" height="20" fill="#e0f7fa" stroke="#00acc1" stroke-width="1"/>
  <rect x="280" y="100" width="20" height="20" fill="#e0f7fa" stroke="#00acc1" stroke-width="1"/>
  <rect x="300" y="100" width="20" height="20" fill="#e0f7fa" stroke="#00acc1" stroke-width="1"/>
  
  <!-- Element Symbols -->
  <text x="266" y="94" font-family="Arial" font-size="10" font-weight="bold" fill="#00acc1">H</text>
  <text x="285" y="94" font-family="Arial" font-size="10" font-weight="bold" fill="#00acc1">He</text>
  <text x="266" y="114" font-family="Arial" font-size="10" font-weight="bold" fill="#00acc1">Li</text>
  <text x="285" y="114" font-family="Arial" font-size="10" font-weight="bold" fill="#00acc1">Be</text>
  <text x="305" y="94" font-family="Arial" font-size="10" font-weight="bold" fill="#00acc1">F</text>
  <text x="305" y="114" font-family="Arial" font-size="10" font-weight="bold" fill="#00acc1">Ne</text>
  
  <!-- DNA Structure Fragment -->
  <path d="M340 80C360 90 380 80 380 90C380 100 360 90 340 100C320 110 300 100 300 110C300 120 320 110 340 120C360 130 380 120 380 130C380 140 360 130 340 140C320 150 300 140 300 150C300 160 320 150 340 160C360 170 380 160 380 170C380 180 360 170 340 180C320 190 300 180 300 190" stroke="#00acc1" stroke-width="2" fill="none"/>
  
  <!-- DNA Rungs -->
  <line x1="340" y1="100" x2="340" y2="100" stroke="#00acc1" stroke-width="1.5"/>
  <line x1="325" y1="95" x2="355" y2="95" stroke="#00acc1" stroke-width="1.5"/>
  <line x1="325" y1="115" x2="355" y2="115" stroke="#00acc1" stroke-width="1.5"/>
  <line x1="325" y1="135" x2="355" y2="135" stroke="#00acc1" stroke-width="1.5"/>
  <line x1="325" y1="155" x2="355" y2="155" stroke="#00acc1" stroke-width="1.5"/>
  <line x1="325" y1="175" x2="355" y2="175" stroke="#00acc1" stroke-width="1.5"/>
  
  <!-- Base Pairs -->
  <circle cx="325" cy="95" r="3" fill="#4caf50"/>
  <circle cx="355" cy="95" r="3" fill="#f44336"/>
  <circle cx="325" cy="115" r="3" fill="#f44336"/>
  <circle cx="355" cy="115" r="3" fill="#4caf50"/>
  <circle cx="325" cy="135" r="3" fill="#2196f3"/>
  <circle cx="355" cy="135" r="3" fill="#ff9800"/>
  <circle cx="325" cy="155" r="3" fill="#ff9800"/>
  <circle cx="355" cy="155" r="3" fill="#2196f3"/>
  <circle cx="325" cy="175" r="3" fill="#4caf50"/>
  <circle cx="355" cy="175" r="3" fill="#f44336"/>
  
  <!-- Math Formulas -->
  <text x="70" y="230" font-family="Arial" font-size="12" fill="#00acc1">E = mc²</text>
  <text x="150" y="230" font-family="Arial" font-size="12" fill="#00acc1">F = ma</text>
  <text x="230" y="230" font-family="Arial" font-size="12" fill="#00acc1">PV = nRT</text>
  <text x="310" y="230" font-family="Arial" font-size="12" fill="#00acc1">λ = h/p</text>
</svg> 