<?xml version="1.0" encoding="UTF-8"?>
<svg width="600" height="350" viewBox="0 0 600 350" fill="none" xmlns="http://www.w3.org/2000/svg">
  <!-- Background -->
  <rect width="600" height="350" fill="#f8f9fa"/>
  
  <!-- Grid Lines -->
  <g opacity="0.2" stroke="#00acc1">
    <line x1="0" y1="50" x2="600" y2="50" stroke-width="1"/>
    <line x1="0" y1="100" x2="600" y2="100" stroke-width="1"/>
    <line x1="0" y1="150" x2="600" y2="150" stroke-width="1"/>
    <line x1="0" y1="200" x2="600" y2="200" stroke-width="1"/>
    <line x1="0" y1="250" x2="600" y2="250" stroke-width="1"/>
    <line x1="0" y1="300" x2="600" y2="300" stroke-width="1"/>
    
    <line x1="50" y1="0" x2="50" y2="350" stroke-width="1"/>
    <line x1="100" y1="0" x2="100" y2="350" stroke-width="1"/>
    <line x1="150" y1="0" x2="150" y2="350" stroke-width="1"/>
    <line x1="200" y1="0" x2="200" y2="350" stroke-width="1"/>
    <line x1="250" y1="0" x2="250" y2="350" stroke-width="1"/>
    <line x1="300" y1="0" x2="300" y2="350" stroke-width="1"/>
    <line x1="350" y1="0" x2="350" y2="350" stroke-width="1"/>
    <line x1="400" y1="0" x2="400" y2="350" stroke-width="1"/>
    <line x1="450" y1="0" x2="450" y2="350" stroke-width="1"/>
    <line x1="500" y1="0" x2="500" y2="350" stroke-width="1"/>
    <line x1="550" y1="0" x2="550" y2="350" stroke-width="1"/>
  </g>
  
  <!-- Physics Simulation Elements -->
  
  <!-- Pendulum -->
  <line x1="150" y1="50" x2="150" y2="150" stroke="#00acc1" stroke-width="2"/>
  <circle cx="150" cy="150" r="20" fill="#4fc3f7" stroke="#00acc1" stroke-width="2"/>
  
  <!-- Spring -->
  <path d="M250 50 L250 60 L240 70 L260 80 L240 90 L260 100 L240 110 L260 120 L240 130 L260 140 L250 150" 
        stroke="#00acc1" stroke-width="2" fill="none"/>
  <circle cx="250" cy="170" r="20" fill="#4fc3f7" stroke="#00acc1" stroke-width="2"/>
  
  <!-- Circuit Elements -->
  <rect x="350" y="80" width="40" height="20" fill="#ffffff" stroke="#00acc1" stroke-width="2"/>
  <circle cx="370" cy="170" r="25" fill="#ffffff" stroke="#00acc1" stroke-width="2"/>
  <line x1="370" y1="145" x2="370" y2="100" stroke="#00acc1" stroke-width="2"/>
  <line x1="350" y1="170" x2="345" y2="170" stroke="#00acc1" stroke-width="2"/>
  <line x1="390" y1="170" x2="395" y2="170" stroke="#00acc1" stroke-width="2"/>
  <line x1="345" y1="170" x2="320" y2="170" stroke="#00acc1" stroke-width="2"/>
  <line x1="395" y1="170" x2="420" y2="170" stroke="#00acc1" stroke-width="2"/>
  <line x1="320" y1="170" x2="320" y2="90" stroke="#00acc1" stroke-width="2"/>
  <line x1="420" y1="170" x2="420" y2="90" stroke="#00acc1" stroke-width="2"/>
  <line x1="320" y1="90" x2="350" y2="90" stroke="#00acc1" stroke-width="2"/>
  <line x1="390" y1="90" x2="420" y2="90" stroke="#00acc1" stroke-width="2"/>
  
  <!-- Battery Symbol -->
  <line x1="365" y1="160" x2="375" y2="160" stroke="#00acc1" stroke-width="2"/>
  <line x1="365" y1="180" x2="375" y2="180" stroke="#00acc1" stroke-width="2"/>
  <line x1="360" y1="175" x2="360" y2="165" stroke="#00acc1" stroke-width="2"/>
  
  <!-- Chemistry Simulation Elements -->
  <circle cx="150" cy="250" r="30" fill="#81c784" stroke="#00acc1" stroke-width="2" opacity="0.6"/>
  <circle cx="190" cy="270" r="25" fill="#ffb74d" stroke="#00acc1" stroke-width="2" opacity="0.6"/>
  <circle cx="130" cy="290" r="20" fill="#7986cb" stroke="#00acc1" stroke-width="2" opacity="0.6"/>
  
  <!-- Molecule Bonds -->
  <line x1="150" y1="250" x2="190" y2="270" stroke="#00acc1" stroke-width="2"/>
  <line x1="150" y1="250" x2="130" y2="290" stroke="#00acc1" stroke-width="2"/>
  <line x1="190" y1="270" x2="130" y2="290" stroke="#00acc1" stroke-width="2"/>
  
  <!-- Wave Function Visualization -->
  <path d="M450 250 C470 220, 490 280, 510 250 C530 220, 550 280, 570 250" 
        stroke="#f06292" stroke-width="3" fill="none"/>
  <path d="M450 250 C470 280, 490 220, 510 250 C530 280, 550 220, 570 250" 
        stroke="#f06292" stroke-width="3" fill="none" opacity="0.3"/>
  
  <!-- Biology Simulation Elements -->
  <!-- DNA Strand (Simplified) -->
  <path d="M500 50 C520 70, 480 90, 500 110 C520 130, 480 150, 500 170" 
        stroke="#00acc1" stroke-width="3" fill="none"/>
  <path d="M540 50 C520 70, 560 90, 540 110 C520 130, 560 150, 540 170" 
        stroke="#00acc1" stroke-width="3" fill="none"/>
  
  <!-- DNA Rungs -->
  <line x1="500" y1="50" x2="540" y2="50" stroke="#00acc1" stroke-width="2"/>
  <line x1="500" y1="110" x2="540" y2="110" stroke="#00acc1" stroke-width="2"/>
  <line x1="500" y1="170" x2="540" y2="170" stroke="#00acc1" stroke-width="2"/>
  <circle cx="500" cy="50" r="5" fill="#ff8a65"/>
  <circle cx="540" cy="50" r="5" fill="#4db6ac"/>
  <circle cx="500" cy="110" r="5" fill="#4db6ac"/>
  <circle cx="540" cy="110" r="5" fill="#ff8a65"/>
  <circle cx="500" cy="170" r="5" fill="#a1887f"/>
  <circle cx="540" cy="170" r="5" fill="#aed581"/>
  
  <!-- Info Text -->
  <rect x="50" y="100" width="500" height="50" rx="10" fill="#ffffff" stroke="#00acc1" stroke-width="2"/>
  <text x="300" y="130" font-family="Arial" font-size="16" text-anchor="middle" fill="#00acc1">
    Select a simulation type to begin interactive learning
  </text>
  
  <!-- Play Button -->
  <circle cx="300" cy="200" r="30" fill="#00acc1" stroke="#00acc1" stroke-width="2"/>
  <path d="M290 185 L290 215 L320 200 Z" fill="#ffffff"/>
</svg> 