<?xml version="1.0" standalone="no"?>
<!DOCTYPE svg PUBLIC "-//W3C//DTD SVG 20010904//EN"
 "http://www.w3.org/TR/2001/REC-SVG-20010904/DTD/svg10.dtd">
<svg version="1.0" xmlns="http://www.w3.org/2000/svg"
 width="300.000000pt" height="300.000000pt" viewBox="0 0 300.000000 300.000000"
 preserveAspectRatio="xMidYMid meet">
<metadata>
Created by potrace 1.10, written by Peter Selinger 2001-2011
</metadata>
<g transform="translate(0.000000,300.000000) scale(0.100000,-0.100000)"
fill="#000000" stroke="none">
<path d="M760 2504 c143 -22 205 -47 233 -93 11 -19 17 -69 23 -185 l7 -158
81 7 c45 4 83 10 87 14 3 3 16 31 29 61 54 122 147 228 204 231 16 1 17 2 4 6
-27 7 -92 -32 -130 -79 -19 -24 -52 -78 -73 -121 -21 -43 -42 -80 -47 -83 -9
-6 -37 -12 -95 -20 -51 -7 -50 -10 -56 167 -5 137 -15 169 -64 205 -38 28
-130 54 -185 53 -23 -1 -32 -3 -18 -5z"/>
<path d="M672 2475 c-21 -18 -35 -43 -47 -90 -10 -36 -16 -68 -12 -71 3 -3 10
18 16 47 15 67 38 105 75 123 18 9 24 16 14 16 -9 0 -30 -11 -46 -25z"/>
<path d="M728 2429 c-10 -5 -25 -36 -34 -67 -8 -31 -64 -205 -124 -387 -60
-181 -125 -383 -145 -448 l-37 -119 -73 -33 c-78 -36 -92 -54 -80 -103 8 -35
53 -82 78 -82 15 0 18 -5 13 -22 -25 -86 -57 -251 -52 -271 11 -44 130 -78
160 -46 7 8 27 70 45 139 17 69 44 166 59 215 26 84 30 91 66 109 39 19 238
88 241 84 1 -2 12 -57 24 -123 24 -132 98 -441 131 -547 17 -55 27 -71 50 -83
26 -13 34 -14 64 -1 19 8 37 23 40 34 4 11 -4 60 -18 109 -39 141 -127 637
-114 647 1 2 26 6 55 9 l51 6 8 -77 c18 -201 84 -307 197 -319 76 -9 172 47
215 124 10 17 13 16 39 -9 37 -35 73 -48 136 -48 126 0 262 112 354 293 31 60
35 61 62 10 10 -20 3 -34 -67 -130 -43 -59 -82 -116 -85 -125 -9 -25 31 -67
69 -74 30 -6 34 -2 99 85 38 50 71 91 75 91 4 0 11 -10 17 -22 6 -13 49 -88
97 -167 71 -119 82 -142 63 -137 -142 42 -344 60 -567 53 -320 -12 -563 -44
-593 -78 -26 -32 -22 -90 9 -124 29 -31 28 -31 194 4 295 63 694 84 864 47 85
-19 172 -54 213 -86 14 -11 32 -20 39 -20 25 0 94 71 94 96 0 34 -122 252
-272 487 l-50 77 35 43 c19 23 71 82 116 131 88 97 99 128 61 166 -38 38 -58
27 -179 -96 -82 -85 -115 -113 -121 -103 -51 90 -99 160 -117 170 -26 14 -61
7 -96 -22 -33 -25 -35 -60 -6 -100 l20 -29 -42 -81 c-45 -85 -132 -190 -180
-215 -40 -20 -95 -18 -119 6 -27 27 -25 33 10 48 55 25 128 101 161 167 27 55
31 72 27 120 -15 179 -235 158 -335 -32 -17 -32 -33 -71 -37 -86 -4 -15 -11
-25 -16 -22 -17 11 -48 -5 -53 -27 -7 -25 18 -84 38 -92 19 -7 11 -41 -22 -88
-61 -89 -114 -101 -147 -33 -14 29 -21 68 -24 145 l-4 105 39 48 c147 178 266
525 233 683 -19 89 -74 132 -147 112 -69 -18 -162 -168 -217 -348 -26 -86 -73
-315 -78 -380 l-3 -35 -67 -3 c-65 -3 -68 -2 -68 20 0 20 -5 83 -25 298 -2 30
-9 152 -15 270 -6 118 -13 223 -16 233 -7 22 -46 42 -112 56 -64 13 -82 13
-104 0z m167 -70 c11 -11 16 -50 21 -149 3 -74 12 -188 20 -253 8 -66 14 -136
14 -158 0 -21 5 -84 12 -140 14 -125 24 -139 102 -139 88 0 100 16 121 157 41
278 157 555 247 594 72 30 107 -16 108 -147 2 -105 -8 -157 -56 -282 -46 -119
-84 -190 -148 -277 l-51 -70 0 -115 c0 -132 5 -157 41 -199 48 -57 129 -29
186 64 37 60 38 68 13 122 l-23 50 32 25 c17 14 37 42 45 64 39 109 120 184
200 184 65 0 91 -27 91 -97 0 -90 -41 -153 -157 -242 -61 -46 -58 -88 8 -122
34 -17 45 -18 82 -8 70 18 131 73 201 179 57 86 79 156 60 191 -21 39 -17 68
12 81 35 16 46 7 108 -82 34 -50 59 -76 74 -78 17 -3 47 21 127 98 69 67 111
100 122 98 31 -6 14 -39 -61 -123 -111 -124 -136 -158 -136 -185 0 -13 26 -67
58 -118 31 -52 81 -133 110 -180 133 -216 157 -281 109 -303 -19 -9 -35 -4
-93 24 -208 105 -517 111 -1004 20 -74 -14 -147 -28 -163 -30 -35 -7 -57 12
-57 47 0 37 14 47 90 59 169 29 344 40 580 37 211 -3 261 -6 358 -26 l113 -24
21 21 c18 19 19 25 9 55 -18 53 -164 289 -188 305 -34 23 -59 8 -120 -73 -43
-57 -61 -74 -77 -72 -37 5 -29 34 32 114 71 95 95 139 88 162 -8 25 -51 72
-66 72 -16 0 -54 -43 -87 -100 -31 -55 -87 -125 -128 -162 -85 -77 -198 -95
-273 -45 -23 15 -49 27 -58 27 -9 0 -39 -21 -66 -46 -53 -50 -101 -74 -147
-74 -96 0 -150 75 -176 244 -8 54 -22 110 -31 124 -14 22 -21 24 -62 18 -27
-4 -56 -15 -69 -28 -21 -20 -23 -28 -18 -78 15 -141 52 -362 86 -516 30 -134
30 -168 3 -172 -17 -2 -25 6 -37 37 -16 40 -105 385 -148 571 -31 137 -45 147
-158 114 -113 -33 -170 -56 -191 -79 -25 -27 -52 -104 -99 -285 -18 -69 -37
-132 -41 -140 -10 -20 -71 -16 -87 5 -13 19 -11 39 18 157 27 108 25 120 -21
165 -57 53 -53 79 20 114 30 15 62 35 72 45 9 11 31 64 48 119 18 55 83 258
146 450 62 193 119 368 126 390 9 28 20 41 38 45 31 7 105 -11 125 -31z"/>
<path d="M1438 2093 c-54 -61 -145 -393 -107 -393 4 0 17 42 29 93 26 103 63
212 92 270 70 138 -9 -174 -82 -325 -22 -44 -24 -56 -12 -49 10 5 24 18 33 29
20 24 72 160 89 232 7 30 16 68 21 83 18 59 -27 101 -63 60z"/>
<path d="M738 1893 c-23 -28 -26 -33 -83 -200 -30 -87 -55 -170 -55 -184 0
-14 9 -34 20 -44 18 -17 23 -17 72 -2 29 9 68 19 87 22 67 14 80 46 61 154 -5
31 -13 95 -18 144 -12 112 -45 155 -84 110z m42 -40 c0 -21 9 -98 20 -171 25
-169 26 -162 -7 -163 -16 0 -58 -8 -95 -18 -38 -9 -68 -15 -68 -12 -1 17 136
401 142 401 5 0 8 -17 8 -37z"/>
<path d="M728 1597 c-26 -39 -45 -73 -43 -76 9 -8 57 43 77 82 36 71 14 67
-34 -6z"/>
<path d="M1743 1596 c-43 -36 -87 -139 -75 -174 5 -16 17 -28 30 -30 69 -10
179 166 130 206 -30 23 -56 23 -85 -2z m54 -70 c-30 -57 -89 -121 -106 -115
-6 3 -1 28 14 64 28 69 90 134 108 116 9 -9 5 -25 -16 -65z"/>
<path d="M1455 2395 c6 -2 29 -9 52 -15 78 -20 126 -89 139 -198 6 -53 8 -58
28 -55 34 5 454 43 480 43 19 0 64 -42 187 -175 90 -96 167 -175 171 -175 5 0
-1 10 -14 23 -13 13 -57 61 -98 107 -180 200 -200 220 -227 226 -25 7 -113 1
-273 -16 -58 -6 -134 -12 -170 -13 l-65 -2 -11 55 c-15 72 -31 110 -57 139
-27 29 -94 61 -127 60 -14 0 -20 -2 -15 -4z"/>
<path d="M592 2271 c-7 -19 -12 -41 -11 -50 0 -9 7 2 15 23 8 22 13 45 11 50
-2 6 -9 -5 -15 -23z"/>
<path d="M542 2118 c-16 -46 -33 -94 -36 -108 -4 -14 -13 -41 -21 -60 -8 -19
-35 -102 -60 -185 -26 -82 -51 -157 -55 -166 -5 -9 -12 -33 -15 -53 -4 -20
-11 -39 -16 -42 -5 -3 -9 -14 -9 -24 0 -11 -10 -22 -22 -25 -44 -13 -119 -68
-135 -98 -24 -46 -13 -118 26 -172 39 -54 39 -57 17 -163 -10 -45 -16 -88 -14
-94 2 -6 14 39 27 100 l23 112 -35 39 c-39 43 -53 91 -43 145 8 41 41 71 114
105 51 24 52 25 74 100 12 42 66 209 120 370 53 162 96 297 94 298 -2 2 -17
-33 -34 -79z"/>
<path d="M1855 2083 c-137 -13 -251 -26 -254 -29 -22 -22 86 -22 284 1 39 5
158 15 222 19 30 2 43 -9 150 -123 167 -178 180 -191 193 -191 6 0 10 4 8 10
-1 5 -72 84 -156 175 -114 122 -159 165 -175 164 -12 -1 -134 -13 -272 -26z"/>
<path d="M1073 2011 c-57 -5 -95 -22 -81 -36 10 -10 187 17 205 31 16 12 13
13 -22 12 -22 -1 -68 -4 -102 -7z"/>
<path d="M2622 1648 c-7 -18 -56 -82 -111 -143 l-98 -110 42 -65 c23 -36 64
-100 90 -142 27 -43 50 -78 52 -78 6 0 -52 102 -109 191 -26 42 -48 82 -48 89
0 12 70 99 137 168 34 36 67 96 61 113 -2 6 -9 -5 -16 -23z"/>
<path d="M720 1333 c0 -5 35 -44 76 -88 72 -76 74 -78 52 -35 -34 66 -129 157
-128 123z"/>
<path d="M645 1266 c-28 -12 -33 -22 -78 -185 -27 -94 -46 -177 -44 -184 3 -7
8 2 11 18 15 66 38 146 64 231 23 71 34 92 55 102 24 12 28 10 66 -30 21 -24
51 -56 65 -71 31 -33 53 -75 59 -108 3 -14 10 -45 17 -69 6 -25 16 -61 21 -80
65 -248 67 -254 105 -287 21 -18 44 -33 53 -33 9 0 0 8 -19 19 -19 10 -43 32
-53 49 -10 16 -42 126 -71 243 l-54 214 -79 92 c-43 50 -80 92 -83 92 -3 0
-18 -6 -35 -13z"/>
<path d="M2210 1153 c0 -5 -18 -31 -39 -60 -22 -29 -33 -49 -25 -46 7 3 14 8
14 12 0 9 54 71 63 71 4 0 21 -22 38 -50 17 -27 33 -50 36 -50 2 0 -4 15 -15
33 -10 17 -28 47 -38 65 -17 30 -34 42 -34 25z"/>
<path d="M1915 1093 c-47 -51 -46 -77 1 -32 42 40 60 69 44 69 -6 0 -27 -17
-45 -37z"/>
<path d="M2660 987 c39 -74 60 -126 60 -148 0 -24 3 -30 9 -20 11 17 -6 77
-40 142 -47 90 -69 128 -79 134 -5 3 17 -45 50 -108z"/>
<path d="M503 843 c-11 -23 -32 -45 -53 -55 -19 -10 -27 -18 -18 -18 25 0 75
46 87 80 14 41 6 38 -16 -7z"/>
<path d="M1150 865 c0 -12 288 -335 299 -335 9 0 234 256 240 273 6 16 -56
-31 -79 -61 -54 -68 -153 -172 -165 -172 -7 0 -24 15 -38 33 -13 17 -55 61
-92 97 -37 36 -75 74 -84 84 -49 59 -80 90 -81 81z"/>
<path d="M218 844 c16 -30 112 -86 112 -65 0 5 -11 12 -25 15 -13 3 -41 21
-61 39 -28 24 -34 26 -26 11z"/>
<path d="M2014 803 c4 -4 59 -10 124 -15 187 -12 207 -16 329 -79 42 -21 88
-39 102 -38 22 1 21 2 -9 9 -20 5 -61 24 -93 43 -31 19 -87 42 -124 51 -95 24
-346 46 -329 29z"/>
<path d="M1888 793 c23 -2 59 -2 80 0 20 2 1 4 -43 4 -44 0 -61 -2 -37 -4z"/>
<path d="M2710 791 c0 -16 -52 -73 -85 -92 -16 -11 -25 -19 -20 -19 13 0 52
26 81 55 21 19 41 65 30 65 -3 0 -6 -4 -6 -9z"/>
<path d="M1663 672 c-56 -64 -123 -141 -148 -169 -26 -29 -42 -53 -37 -53 8 0
113 116 283 314 4 5 25 12 46 16 l38 8 -40 1 c-39 0 -43 -3 -142 -117z"/>
<path d="M1210 662 c0 -29 -54 -74 -107 -89 l-48 -13 44 5 c42 6 101 37 101
55 0 5 9 11 19 15 15 4 31 -6 63 -42 97 -107 134 -142 158 -148 23 -6 23 -5
-5 13 -16 10 -70 65 -120 120 -49 56 -93 102 -97 102 -5 0 -8 -8 -8 -18z"/>
</g>
</svg>
