<?xml version="1.0" encoding="UTF-8"?>
<svg width="60" height="60" viewBox="0 0 60 60" fill="none" xmlns="http://www.w3.org/2000/svg">
  <!-- Background Circle -->
  <circle cx="30" cy="30" r="30" fill="#e0f7fa" opacity="0.8"/>
  
  <!-- Erlenmeyer Flask -->
  <path d="M22 15 L38 15 L42 45 C42 47, 40 49, 30 49 C20 49, 18 47, 18 45 Z" 
        fill="#e0f7fa" stroke="#00acc1" stroke-width="2"/>
  
  <!-- Liquid in Flask -->
  <path d="M22 34 L38 34 L42 45 C42 47, 40 49, 30 49 C20 49, 18 47, 18 45 Z" 
        fill="#00acc1" fill-opacity="0.3"/>
  
  <!-- Flask Top/Neck -->
  <rect x="27" y="10" width="6" height="5" fill="#e0f7fa" stroke="#00acc1" stroke-width="2"/>
  
  <!-- Bubbles in Flask -->
  <circle cx="26" cy="38" r="2" fill="#00acc1" fill-opacity="0.5"/>
  <circle cx="33" cy="42" r="2.5" fill="#00acc1" fill-opacity="0.5"/>
  <circle cx="24" cy="44" r="1.5" fill="#00acc1" fill-opacity="0.5"/>
  <circle cx="35" cy="37" r="1.8" fill="#00acc1" fill-opacity="0.5"/>
  <circle cx="29" cy="40" r="2.2" fill="#00acc1" fill-opacity="0.5"/>
  
  <!-- Molecule Structure -->
  <circle cx="21" cy="22" r="3" fill="#00acc1" stroke="#007c91" stroke-width="1"/>
  <circle cx="39" cy="22" r="3" fill="#00acc1" stroke="#007c91" stroke-width="1"/>
  <circle cx="30" cy="28" r="3" fill="#00acc1" stroke="#007c91" stroke-width="1"/>
  
  <!-- Bonds -->
  <line x1="24" y1="22" x2="27" y2="28" stroke="#007c91" stroke-width="1.5"/>
  <line x1="36" y1="22" x2="33" y2="28" stroke="#007c91" stroke-width="1.5"/>
  <line x1="24" y1="22" x2="36" y2="22" stroke="#007c91" stroke-width="1.5"/>
</svg> 