<?xml version="1.0" encoding="UTF-8"?>
<svg width="60" height="60" viewBox="0 0 60 60" fill="none" xmlns="http://www.w3.org/2000/svg">
  <!-- Background Circle -->
  <circle cx="30" cy="30" r="30" fill="#FFF1F2" opacity="0.8"/>
  
  <!-- Chinese Character Frame -->
  <rect x="12" y="10" width="36" height="40" rx="3" fill="#FFF1F2" stroke="#FF4D6D" stroke-width="1.5"/>
  
  <!-- Calligraphy Brush Stroke 1 - simplified 中 (zhong) character -->
  <path d="M22 15 L38 15 M30 15 L30 35 M22 25 L38 25" 
        stroke="#FF4D6D" stroke-width="3" stroke-linecap="round" stroke-linejoin="round"/>
  
  <!-- Ink Drops -->
  <circle cx="38" cy="15" r="1.5" fill="#FF4D6D" opacity="0.7"/>
  <circle cx="22" cy="25" r="1.5" fill="#FF4D6D" opacity="0.7"/>
  <circle cx="30" cy="35" r="1.5" fill="#FF4D6D" opacity="0.7"/>
  
  <!-- Calligraphy Brush -->
  <path d="M42 44 L50 36 L48 34 L40 42 Z" fill="#C9184A"/>
  <path d="M40 42 L36 46 Q35 47, 36 48 Q37 49, 38 48 L42 44 Z" fill="#C9184A"/>
  <rect x="48" y="34" width="5" height="2" rx="1" transform="rotate(-45 48 34)" fill="#590D22"/>
  
  <!-- Red Seal/Stamp -->
  <rect x="14" y="38" width="10" height="10" rx="1" fill="#FF8FA3" opacity="0.8"/>
  <path d="M16 43 L22 43 M19 40 L19 46" stroke="#C9184A" stroke-width="1.2" stroke-linecap="round"/>
</svg> 