<?xml version="1.0" encoding="UTF-8"?>
<svg width="48" height="48" viewBox="0 0 48 48" fill="none" xmlns="http://www.w3.org/2000/svg">
  <!-- Background Circle -->
  <circle cx="24" cy="24" r="22" fill="#e8edff" stroke="#6741d9" stroke-width="2"/>
  
  <!-- Open Book -->
  <path d="M12 16C12 14.8954 12.8954 14 14 14H34C35.1046 14 36 14.8954 36 16V32C36 33.1046 35.1046 34 34 34H14C12.8954 34 12 33.1046 12 32V16Z" fill="#ffffff" stroke="#6741d9" stroke-width="1.5"/>
  
  <!-- Book Spine -->
  <path d="M24 14V34" stroke="#6741d9" stroke-width="1.5"/>
  
  <!-- Book Pages Left Side (with lines) -->
  <path d="M16 19H22" stroke="#6741d9" stroke-width="1"/>
  <path d="M16 22H22" stroke="#6741d9" stroke-width="1"/>
  <path d="M16 25H20" stroke="#6741d9" stroke-width="1"/>
  <path d="M16 28H22" stroke="#6741d9" stroke-width="1"/>
  
  <!-- Quill Pen -->
  <path d="M32 18C32 18 28 20 28 24C28 28 32 30 32 30" stroke="#6741d9" stroke-width="1.5" stroke-linecap="round"/>
  <path d="M29 17L32 18L35 17" stroke="#6741d9" stroke-width="1.5" stroke-linecap="round"/>
  
  <!-- Letters on Right Page -->
  <path d="M27 22L29 20L31 22" stroke="#6741d9" stroke-width="1" stroke-linecap="round"/>
  <circle cx="29" cy="25" r="1.5" fill="#e8edff" stroke="#6741d9" stroke-width="1"/>
  <path d="M27 28H31" stroke="#6741d9" stroke-width="1" stroke-linecap="round"/>
</svg> 