<svg width="48" height="48" viewBox="0 0 48 48" xmlns="http://www.w3.org/2000/svg">
    <circle cx="24" cy="24" r="22" fill="#f8f9fa" stroke="#6741d9" stroke-width="2"/>
    
    <!-- Open Book -->
    <path d="M12 16 C12 14 12 14 24 14 C36 14 36 14 36 16 L36 34 C36 36 36 36 24 36 C12 36 12 36 12 34 Z" fill="#f8f9fa" stroke="#6741d9" stroke-width="1.5"/>
    
    <!-- Book Pages (Left) -->
    <path d="M12 16 C12 16 18 15 24 18 L24 36 C18 33 12 34 12 34 Z" fill="#e9e1ff" stroke="#6741d9" stroke-width="1.5"/>
    
    <!-- Book Pages (Right) -->
    <path d="M36 16 C36 16 30 15 24 18 L24 36 C30 33 36 34 36 34 Z" fill="#f0e6ff" stroke="#6741d9" stroke-width="1.5"/>
    
    <!-- Book Spine Line -->
    <line x1="24" y1="18" x2="24" y2="36" stroke="#6741d9" stroke-width="1"/>
    
    <!-- Text Lines (Left Page) -->
    <line x1="15" y1="22" x2="21" y2="22" stroke="#6741d9" stroke-width="1" stroke-opacity="0.7"/>
    <line x1="15" y1="25" x2="22" y2="25" stroke="#6741d9" stroke-width="1" stroke-opacity="0.7"/>
    <line x1="15" y1="28" x2="20" y2="28" stroke="#6741d9" stroke-width="1" stroke-opacity="0.7"/>
    <line x1="15" y1="31" x2="21" y2="31" stroke="#6741d9" stroke-width="1" stroke-opacity="0.7"/>
    
    <!-- Text Lines (Right Page) -->
    <line x1="27" y1="22" x2="33" y2="22" stroke="#6741d9" stroke-width="1" stroke-opacity="0.7"/>
    <line x1="26" y1="25" x2="33" y2="25" stroke="#6741d9" stroke-width="1" stroke-opacity="0.7"/>
    <line x1="28" y1="28" x2="33" y2="28" stroke="#6741d9" stroke-width="1" stroke-opacity="0.7"/>
    <line x1="27" y1="31" x2="33" y2="31" stroke="#6741d9" stroke-width="1" stroke-opacity="0.7"/>
    
    <!-- Pen -->
    <path d="M30 18 L36 12 L38 14 L32 20 Z" fill="#6741d9" stroke="#6741d9" stroke-width="1"/>
    
    <!-- Pen Tip -->
    <path d="M30 18 L28 20 L30 22 L32 20 Z" fill="#333" stroke="#333" stroke-width="0.5"/>
    
    <!-- Letters "A-Z" -->
    <text x="18" y="19" font-family="Arial" font-size="6" font-weight="bold" fill="#6741d9">A</text>
    <text x="30" y="19" font-family="Arial" font-size="6" font-weight="bold" fill="#6741d9">Z</text>
</svg> 