<?xml version="1.0" encoding="UTF-8"?>
<svg width="60" height="60" viewBox="0 0 60 60" fill="none" xmlns="http://www.w3.org/2000/svg">
  <!-- Background Circle -->
  <circle cx="30" cy="30" r="30" fill="#e8f8f5" opacity="0.8"/>
  
  <!-- Globe -->
  <circle cx="30" cy="30" r="20" fill="#a8dadc" stroke="#1d3557" stroke-width="1.5"/>
  
  <!-- Map Continental Outlines -->
  <!-- North America -->
  <path d="M19 17 Q17 20, 18 25 Q19 29, 17 33 Q16 35, 17 37 Q18 38, 20 37" 
        fill="#2a9d8f" stroke="#1d3557" stroke-width="0.75"/>
  
  <!-- South America -->
  <path d="M23 37 Q22 40, 24 44 Q26 45, 27 43 Q28 41, 27 39 Q26 37, 24 37 Z" 
        fill="#2a9d8f" stroke="#1d3557" stroke-width="0.75"/>
  
  <!-- Europe -->
  <path d="M33 17 Q29 19, 27 21 Q26 25, 28 27 Q31 28, 33 26 Q35 24, 35 20 Q35 18, 33 17 Z" 
        fill="#2a9d8f" stroke="#1d3557" stroke-width="0.75"/>
  
  <!-- Africa -->
  <path d="M33 27 Q32 32, 33 36 Q34 40, 37 41 Q41 40, 42 36 Q43 32, 40 30 Q37 29, 36 27 Q34 26, 33 27 Z" 
        fill="#2a9d8f" stroke="#1d3557" stroke-width="0.75"/>
  
  <!-- Asia -->
  <path d="M36 17 Q41 18, 43 21 Q45 25, 44 29 Q43 33, 41 35 Q38 36, 35 35 Q36 31, 35 27 Q33 25, 33 22 Q33 19, 36 17 Z" 
        fill="#2a9d8f" stroke="#1d3557" stroke-width="0.75"/>
  
  <!-- Australia -->
  <path d="M43 38 Q45 39, 47 38 Q48 37, 47 35 Q46 33, 44 34 Q42 35, 43 38 Z" 
        fill="#2a9d8f" stroke="#1d3557" stroke-width="0.75"/>
  
  <!-- Grid Lines (Latitude/Longitude) -->
  <circle cx="30" cy="30" r="15" fill="none" stroke="#1d3557" stroke-width="0.5" stroke-dasharray="1 2"/>
  <circle cx="30" cy="30" r="10" fill="none" stroke="#1d3557" stroke-width="0.5" stroke-dasharray="1 2"/>
  <path d="M10 30 L50 30" stroke="#1d3557" stroke-width="0.5" stroke-dasharray="1 2"/>
  <path d="M30 10 L30 50" stroke="#1d3557" stroke-width="0.5" stroke-dasharray="1 2"/>
  
  <!-- Compass Rose -->
  <circle cx="47" cy="15" r="6" fill="#f1faee" stroke="#1d3557" stroke-width="0.75"/>
  <path d="M47 9 L47 21 M41 15 L53 15" stroke="#1d3557" stroke-width="0.75"/>
  <path d="M44 12 L50 18 M44 18 L50 12" stroke="#1d3557" stroke-width="0.75"/>
  <text x="46.5" y="14" font-family="Arial" font-size="3.5" font-weight="bold" text-anchor="middle" fill="#1d3557">N</text>
  <text x="46.5" y="19" font-family="Arial" font-size="3.5" font-weight="bold" text-anchor="middle" fill="#1d3557">S</text>
  <text x="42" y="15.5" font-family="Arial" font-size="3.5" font-weight="bold" text-anchor="middle" fill="#1d3557">W</text>
  <text x="51" y="15.5" font-family="Arial" font-size="3.5" font-weight="bold" text-anchor="middle" fill="#1d3557">E</text>
</svg> 