<svg width="48" height="48" viewBox="0 0 48 48" xmlns="http://www.w3.org/2000/svg">
    <!-- Background gradient -->
    <defs>
        <linearGradient id="logoGradient" x1="0%" y1="0%" x2="100%" y2="100%">
            <stop offset="0%" style="stop-color:#6741d9;stop-opacity:1" />
            <stop offset="100%" style="stop-color:#5f3dc4;stop-opacity:1" />
        </linearGradient>
    </defs>
    
    <!-- Base Circle -->
    <circle cx="24" cy="24" r="22" fill="url(#logoGradient)" />
    
    <!-- Book Shape -->
    <path d="M 15,16 L 15,32 C 15,32 19,30 24,30 C 29,30 33,32 33,32 L 33,16 C 33,16 29,14 24,14 C 19,14 15,16 15,16 Z" 
          fill="white" stroke="#5f3dc4" stroke-width="1" />
          
    <!-- Book Spine -->
    <path d="M 24,14 L 24,30" fill="none" stroke="#5f3dc4" stroke-width="1" />
    
    <!-- AI Brain/Circuit -->
    <circle cx="24" cy="22" r="5" fill="none" stroke="white" stroke-width="1.5" />
    
    <!-- Neural Network Connections -->
    <line x1="19" y1="22" x2="16" y2="19" stroke="white" stroke-width="1" />
    <line x1="19" y1="22" x2="16" y2="25" stroke="white" stroke-width="1" />
    <line x1="29" y1="22" x2="32" y2="19" stroke="white" stroke-width="1" />
    <line x1="29" y1="22" x2="32" y2="25" stroke="white" stroke-width="1" />
    <line x1="24" y1="17" x2="24" y2="15" stroke="white" stroke-width="1" />
    <line x1="24" y1="27" x2="24" y2="29" stroke="white" stroke-width="1" />
    
    <!-- Neural Nodes -->
    <circle cx="16" cy="19" r="1.5" fill="white" />
    <circle cx="16" cy="25" r="1.5" fill="white" />
    <circle cx="32" cy="19" r="1.5" fill="white" />
    <circle cx="32" cy="25" r="1.5" fill="white" />
    
    <!-- Decorative Elements -->
    <circle cx="24" cy="22" r="2" fill="white" />
    
    <!-- Light Beams (representing knowledge/learning) -->
    <path d="M 24,37 L 26,42" stroke="white" stroke-width="1" stroke-opacity="0.7" />
    <path d="M 24,37 L 22,42" stroke="white" stroke-width="1" stroke-opacity="0.7" />
    <path d="M 24,37 L 24,42" stroke="white" stroke-width="1" stroke-opacity="0.7" />
</svg> 