<svg width="48" height="48" viewBox="0 0 48 48" xmlns="http://www.w3.org/2000/svg">
    <circle cx="24" cy="24" r="22" fill="#f8f9fa" stroke="#6741d9" stroke-width="2"/>
    
    <!-- Scroll/Parchment -->
    <path d="M 18,10 Q 16,10 16,12 L 16,36 Q 16,38 18,38 L 30,38 Q 32,38 32,36 L 32,12 Q 32,10 30,10 Z" fill="white" stroke="#6741d9" stroke-width="1.5"/>
    
    <!-- Poem Lines -->
    <line x1="19" y1="16" x2="29" y2="16" stroke="#6741d9" stroke-width="1"/>
    <line x1="19" y1="19" x2="27" y2="19" stroke="#6741d9" stroke-width="1"/>
    <line x1="19" y1="22" x2="28" y2="22" stroke="#6741d9" stroke-width="1"/>
    <line x1="19" y1="25" x2="26" y2="25" stroke="#6741d9" stroke-width="1"/>
    <line x1="19" y1="28" x2="29" y2="28" stroke="#6741d9" stroke-width="1"/>
    <line x1="19" y1="31" x2="25" y2="31" stroke="#6741d9" stroke-width="1"/>
    
    <!-- Quill Pen -->
    <path d="M 30,14 L 36,8 C 32,12 33,17 38,14" fill="none" stroke="#6741d9" stroke-width="1.5" stroke-linecap="round" stroke-linejoin="round"/>
    <line x1="30" y1="14" x2="28" y2="16" stroke="#6741d9" stroke-width="1.5" stroke-linecap="round"/>
</svg> 