<?xml version="1.0" encoding="UTF-8"?>
<svg width="48" height="48" viewBox="0 0 48 48" fill="none" xmlns="http://www.w3.org/2000/svg">
  <!-- Background Circle -->
  <circle cx="24" cy="24" r="22" fill="#e0f7fa" stroke="#00acc1" stroke-width="2"/>
  
  <!-- Flask -->
  <path d="M19 14H29V22L33 30V34H15V30L19 22V14Z" fill="#ffffff" stroke="#00acc1" stroke-width="1.5"/>
  
  <!-- Flask Liquid -->
  <path d="M19 22L15 30V34H33V30L29 22H19Z" fill="#e0f7fa" fill-opacity="0.6" stroke="#00acc1" stroke-width="0"/>
  
  <!-- Flask Neck -->
  <path d="M22 14H26V22H22V14Z" fill="#ffffff" stroke="#00acc1" stroke-width="0"/>
  
  <!-- Bubbles in Flask -->
  <circle cx="20" cy="26" r="1.5" fill="#ffffff" stroke="#00acc1" stroke-width="1"/>
  <circle cx="24" cy="30" r="2" fill="#ffffff" stroke="#00acc1" stroke-width="1"/>
  <circle cx="28" cy="27" r="1" fill="#ffffff" stroke="#00acc1" stroke-width="1"/>
  
  <!-- Atom Orbits -->
  <ellipse cx="24" cy="19" rx="8" ry="3" stroke="#00acc1" stroke-width="1" fill="none" transform="rotate(30 24 19)"/>
  <ellipse cx="24" cy="19" rx="8" ry="3" stroke="#00acc1" stroke-width="1" fill="none" transform="rotate(90 24 19)"/>
  <ellipse cx="24" cy="19" rx="8" ry="3" stroke="#00acc1" stroke-width="1" fill="none" transform="rotate(150 24 19)"/>
  
  <!-- Atom Nucleus -->
  <circle cx="24" cy="19" r="2" fill="#00acc1" stroke="#00acc1" stroke-width="1"/>
  
  <!-- Molecular Structure -->
  <line x1="17" y1="28" x2="19" y2="31" stroke="#00acc1" stroke-width="1"/>
  <line x1="31" y1="28" x2="29" y2="31" stroke="#00acc1" stroke-width="1"/>
  <line x1="19" y1="31" x2="29" y2="31" stroke="#00acc1" stroke-width="1"/>
  
  <!-- Small Molecules -->
  <circle cx="17" cy="28" r="1" fill="#00acc1"/>
  <circle cx="31" cy="28" r="1" fill="#00acc1"/>
  <circle cx="19" cy="31" r="1" fill="#00acc1"/>
  <circle cx="29" cy="31" r="1" fill="#00acc1"/>
</svg> 