<svg width="48" height="48" viewBox="0 0 48 48" xmlns="http://www.w3.org/2000/svg">
    <circle cx="24" cy="24" r="22" fill="#f8f9fa" stroke="#6741d9" stroke-width="2"/>
    
    <!-- Dictionary/Book -->
    <path d="M 14,34 L 14,14 C 14,14 19,12 24,12 C 29,12 34,14 34,14 L 34,34 C 34,34 29,32 24,32 C 19,32 14,34 14,34 Z" fill="white" stroke="#6741d9" stroke-width="2"/>
    
    <!-- Center Line (Book Spine) -->
    <line x1="24" y1="12" x2="24" y2="32" stroke="#6741d9" stroke-width="1.5"/>
    
    <!-- Letter A -->
    <text x="18" y="24" font-family="Arial" font-size="10" font-weight="bold" fill="#6741d9">A</text>
    
    <!-- Letter Z -->
    <text x="28" y="24" font-family="Arial" font-size="10" font-weight="bold" fill="#6741d9">Z</text>
    
    <!-- Vocabulary Cards -->
    <rect x="17" y="16" width="14" height="6" fill="#f8f9fa" stroke="#6741d9" stroke-width="1" rx="1" ry="1" transform="rotate(-5, 24, 19)"/>
    <rect x="18" y="22" width="12" height="5" fill="#f8f9fa" stroke="#6741d9" stroke-width="1" rx="1" ry="1" transform="rotate(5, 24, 24.5)"/>
</svg> 